<svg width="53" height="53" viewBox="0 0 53 53" fill="none" xmlns="http://www.w3.org/2000/svg">
<ellipse cx="26.75" cy="26.5581" rx="26.25" ry="26" fill="#181818"/>
<path fill-rule="evenodd" clip-rule="evenodd" d="M27.9193 13.9863C21.1863 13.9863 15.7695 19.3515 15.7695 26.0204C15.7695 31.3355 19.2626 35.8483 24.0719 37.4528C24.6794 37.5531 24.8819 37.2021 24.8819 36.8511C24.8819 36.5502 24.8819 35.7981 24.8819 34.7953C21.4901 35.5474 20.7813 33.1907 20.7813 33.1907C20.2245 31.7868 19.4145 31.4358 19.4145 31.4358C18.3007 30.6836 19.5157 30.6836 19.5157 30.6836C20.7307 30.7839 21.3888 31.9372 21.3888 31.9372C22.4519 33.7924 24.2238 33.2409 24.9325 32.94C25.0338 32.1377 25.3375 31.6363 25.6919 31.3355C23.0088 31.0346 20.1738 29.9816 20.1738 25.3686C20.1738 24.0649 20.6295 22.9618 21.4394 22.1595C21.3382 21.8586 20.8826 20.6552 21.5407 18.9504C21.5407 18.9504 22.5532 18.6495 24.8819 20.2039C25.8437 19.9532 26.9069 19.8028 27.9193 19.8028C28.9318 19.8028 29.9949 19.9532 30.9568 20.2039C33.2855 18.6495 34.298 18.9504 34.298 18.9504C34.9561 20.6051 34.5511 21.8085 34.3992 22.1595C35.1586 23.0119 35.6648 24.0649 35.6648 25.3686C35.6648 29.9816 32.8299 30.9845 30.0962 31.2853C30.5518 31.6363 30.9062 32.3885 30.9062 33.4916C30.9062 35.0961 30.9062 36.3998 30.9062 36.801C30.9062 37.1018 31.1087 37.5029 31.7668 37.4027C36.5761 35.8483 40.0691 31.3355 40.0691 26.0204C40.0691 19.3515 34.6524 13.9863 27.9193 13.9863Z" fill="white"/>
</svg>
