<svg width="53" height="53" viewBox="0 0 53 53" fill="none" xmlns="http://www.w3.org/2000/svg">
<ellipse cx="26.25" cy="26.5581" rx="26.25" ry="26" fill="#181818"/>
<path d="M37.873 20.9621C37.0873 21.3079 36.258 21.5241 35.385 21.6538C36.258 21.135 36.9564 20.3136 37.2619 19.3192C36.4326 19.7948 35.516 20.1406 34.5121 20.3568C33.7264 19.5354 32.5916 19.0166 31.3694 19.0166C29.0124 19.0166 27.0919 20.9188 27.0919 23.2534C27.0919 23.5992 27.1355 23.9019 27.2228 24.2045C23.6873 24.0316 20.501 22.3455 18.3623 19.7516C18.0131 20.4 17.7948 21.0918 17.7948 21.8699C17.7948 23.3398 18.5369 24.6368 19.7154 25.415C19.017 25.3718 18.3623 25.1988 17.7512 24.8962V24.9394C17.7512 27.0146 19.2352 28.7439 21.1994 29.133C20.8502 29.2195 20.4574 29.2627 20.0645 29.2627C19.8027 29.2627 19.4971 29.2195 19.2352 29.1762C19.8027 30.8623 21.374 32.116 23.2509 32.116C21.7668 33.2401 19.9336 33.9318 17.9258 33.9318C17.5766 33.9318 17.2274 33.9318 16.9219 33.8886C18.8424 35.0991 21.0684 35.7908 23.5127 35.7908C31.4131 35.7908 35.7342 29.3059 35.7342 23.6857C35.7342 23.5128 35.7342 23.2966 35.7342 23.1237C36.5635 22.5617 37.3056 21.8267 37.873 20.9621Z" fill="white"/>
</svg>
