<svg width="53" height="53" viewBox="0 0 53 53" fill="none" xmlns="http://www.w3.org/2000/svg">
<ellipse cx="26.25" cy="26.5581" rx="26.25" ry="26" fill="#181818"/>
<path d="M26.2485 16.2532C29.6398 16.2532 30.0414 16.2658 31.3811 16.3263C32.1867 16.3361 32.9845 16.4826 33.74 16.7595C34.2879 16.9687 34.7855 17.2893 35.2007 17.7006C35.6159 18.1119 35.9396 18.6047 36.1509 19.1474C36.4304 19.8957 36.5783 20.686 36.5882 21.4838C36.6487 22.8108 36.662 23.2085 36.662 26.5676C36.662 29.9266 36.6493 30.3244 36.5882 31.6514C36.5783 32.4492 36.4304 33.2394 36.1509 33.9878C35.9396 34.5304 35.6159 35.0233 35.2007 35.4345C34.7855 35.8458 34.2879 36.1664 33.74 36.3757C32.9845 36.6526 32.1867 36.7991 31.3811 36.8088C30.042 36.8687 29.6404 36.8819 26.2485 36.8819C22.8566 36.8819 22.4549 36.8693 21.1158 36.8088C20.3103 36.7991 19.5125 36.6526 18.757 36.3757C18.2091 36.1664 17.7115 35.8458 17.2963 35.4345C16.881 35.0233 16.5574 34.5304 16.3461 33.9878C16.0665 33.2394 15.9186 32.4492 15.9088 31.6514C15.8483 30.3244 15.835 29.9266 15.835 26.5676C15.835 23.2085 15.8477 22.8108 15.9088 21.4838C15.9186 20.686 16.0665 19.8957 16.3461 19.1474C16.5574 18.6047 16.881 18.1119 17.2963 17.7006C17.7115 17.2893 18.2091 16.9687 18.757 16.7595C19.5125 16.4826 20.3103 16.3361 21.1158 16.3263C22.4555 16.2664 22.8572 16.2532 26.2485 16.2532ZM26.2485 13.9863C22.8009 13.9863 22.3666 14.0007 21.0118 14.0618C19.9576 14.0826 18.9146 14.2803 17.9271 14.6465C17.08 14.9626 16.3128 15.458 15.6789 16.0981C15.0321 16.7261 14.5315 17.4865 14.2122 18.3261C13.8424 19.3041 13.6428 20.3372 13.6219 21.3814C13.5614 22.7221 13.5469 23.1522 13.5469 26.567C13.5469 29.9817 13.5614 30.4119 13.6231 31.7538C13.6441 32.798 13.8437 33.831 14.2134 34.8091C14.5324 35.6485 15.0326 36.4089 15.6789 37.0371C16.3131 37.6773 17.0808 38.1727 17.9283 38.4886C18.9158 38.8549 19.9588 39.0526 21.013 39.0733C22.3678 39.1332 22.8003 39.1488 26.2497 39.1488C29.6991 39.1488 30.1316 39.1344 31.4864 39.0733C32.5406 39.0526 33.5836 38.8549 34.5711 38.4886C35.4146 38.1648 36.1805 37.6702 36.82 37.0364C37.4595 36.4026 37.9584 35.6436 38.2848 34.8079C38.6545 33.8298 38.8541 32.7968 38.8751 31.7526C38.9356 30.4119 38.9501 29.9817 38.9501 26.567C38.9501 23.1522 38.9356 22.7221 38.8739 21.3802C38.8529 20.336 38.6533 19.3029 38.2836 18.3249C37.9646 17.4854 37.4644 16.7251 36.818 16.0969C36.1838 15.4567 35.4162 14.9613 34.5686 14.6453C33.5812 14.2791 32.5382 14.0814 31.484 14.0606C30.1303 14.0007 29.6961 13.9863 26.2485 13.9863Z" fill="white"/>
<path d="M26.2452 20.1133C24.9552 20.1133 23.6941 20.4922 22.6215 21.2021C21.5489 21.9119 20.7128 22.9209 20.2192 24.1014C19.7255 25.2819 19.5963 26.5809 19.848 27.8341C20.0997 29.0873 20.7209 30.2385 21.6331 31.142C22.5453 32.0455 23.7075 32.6608 24.9727 32.9101C26.238 33.1593 27.5495 33.0314 28.7413 32.5424C29.9332 32.0534 30.9519 31.2254 31.6686 30.163C32.3853 29.1006 32.7678 27.8515 32.7678 26.5737C32.7678 24.8603 32.0806 23.2171 30.8574 22.0055C29.6342 20.7939 27.9751 20.1133 26.2452 20.1133ZM26.2452 30.7673C25.4079 30.7673 24.5893 30.5213 23.893 30.0605C23.1968 29.5998 22.6541 28.9448 22.3337 28.1785C22.0132 27.4123 21.9294 26.5691 22.0927 25.7556C22.2561 24.9422 22.6593 24.1949 23.2514 23.6085C23.8436 23.022 24.598 22.6226 25.4193 22.4608C26.2405 22.299 27.0918 22.382 27.8655 22.6994C28.6391 23.0168 29.3004 23.5543 29.7656 24.2439C30.2308 24.9336 30.4791 25.7443 30.4791 26.5737C30.4791 27.6859 30.033 28.7526 29.239 29.539C28.445 30.3255 27.3681 30.7673 26.2452 30.7673Z" fill="white"/>
<path d="M33.0476 21.3641C33.8894 21.3641 34.5718 20.6882 34.5718 19.8544C34.5718 19.0206 33.8894 18.3447 33.0476 18.3447C32.2058 18.3447 31.5234 19.0206 31.5234 19.8544C31.5234 20.6882 32.2058 21.3641 33.0476 21.3641Z" fill="white"/>
</svg>
