<svg width="50" height="32" viewBox="0 0 50 32" fill="none" xmlns="http://www.w3.org/2000/svg">
<path d="M24.7613 2.04541C20.2481 2.04885 15.9212 3.20713 12.7298 5.26618C9.53847 7.32523 7.74323 10.1169 7.7379 13.0288C7.7325 15.4085 8.93725 17.7235 11.1673 19.6189C11.1673 19.6189 11.6316 20.0133 11.7075 20.0702L24.7613 30.0032L37.8214 20.0652C37.8895 20.0123 38.3553 19.6189 38.3553 19.6189L38.3568 19.6159C40.5858 17.7214 41.79 15.4074 41.7847 13.0288C41.7794 10.1169 39.9842 7.32523 36.7928 5.26618C33.6014 3.20713 29.2746 2.04885 24.7613 2.04541ZM24.7613 17.0228C23.537 17.0228 22.3401 16.7886 21.3222 16.3497C20.3042 15.9108 19.5107 15.2871 19.0422 14.5573C18.5737 13.8275 18.4511 13.0244 18.6899 12.2497C18.9288 11.4749 19.5184 10.7632 20.3841 10.2047C21.2498 9.64611 22.3528 9.26572 23.5536 9.11161C24.7544 8.9575 25.9991 9.0366 27.1303 9.33889C28.2614 9.64119 29.2282 10.1531 29.9084 10.8099C30.5886 11.4667 30.9516 12.2389 30.9516 13.0288C30.9496 14.0877 30.2967 15.1028 29.1363 15.8516C27.9758 16.6003 26.4025 17.0215 24.7613 17.0228Z" fill="white"/>
</svg>
