<svg width="27" height="27" viewBox="0 0 27 27" fill="none" xmlns="http://www.w3.org/2000/svg">
<path d="M26.4992 19.966V23.88C26.5007 24.2434 26.4261 24.6031 26.2802 24.936C26.1344 25.2689 25.9205 25.5678 25.6522 25.8134C25.3839 26.059 25.0672 26.2461 24.7223 26.3625C24.3774 26.4789 24.0119 26.5221 23.6493 26.4894C19.6266 26.0532 15.7626 24.6813 12.3676 22.484C9.20898 20.4809 6.53104 17.8083 4.52394 14.6559C2.31462 11.2523 0.939714 7.3771 0.510611 3.34433C0.477943 2.98355 0.520905 2.61992 0.636763 2.27661C0.752621 1.93331 0.938835 1.61783 1.18355 1.35029C1.42827 1.08274 1.72612 0.868973 2.05815 0.722604C2.39018 0.576235 2.74911 0.500468 3.11208 0.500126H7.0339C7.66833 0.493895 8.28338 0.718111 8.76442 1.13098C9.24546 1.54386 9.55965 2.11721 9.64845 2.74418C9.81398 3.99676 10.121 5.22664 10.5635 6.41034C10.7394 6.87732 10.7775 7.38483 10.6732 7.87273C10.569 8.36064 10.3267 8.80849 9.97527 9.16322L8.31503 10.8202C10.176 14.0865 12.8858 16.791 16.1587 18.6483L17.8189 16.9913C18.1743 16.6405 18.6231 16.3988 19.112 16.2947C19.6008 16.1907 20.1093 16.2287 20.5772 16.4042C21.7633 16.8459 22.9956 17.1523 24.2507 17.3175C24.8857 17.4069 25.4657 17.7261 25.8802 18.2144C26.2948 18.7028 26.5151 19.3261 26.4992 19.966Z" fill="white"/>
</svg>
