<svg width="50" height="33" viewBox="0 0 50 33" fill="none" xmlns="http://www.w3.org/2000/svg">
<path d="M41.2689 14.8839H45.3958C45.3958 8.05422 37.4041 2.90332 26.8041 2.90332V5.56597C35.1858 5.56597 41.2689 9.48406 41.2689 14.8839Z" fill="white"></path>
<path d="M26.8248 10.8914C31.1642 10.8914 33.0151 12.0856 33.0151 14.8853H37.142C37.142 10.5918 33.4794 8.22872 26.8248 8.22872V10.8914ZM33.8859 18.1378C33.4894 17.9053 32.9684 17.7813 32.4328 17.7919C31.8973 17.8026 31.3891 17.9471 31.0156 18.195L26.0778 21.4714C24.8893 21.325 22.4998 20.8444 20.0402 19.2614C17.5806 17.6731 16.8356 16.1275 16.6149 15.366L21.6889 12.1788C22.0735 11.938 22.2979 11.61 22.3144 11.2644C22.331 10.9188 22.1385 10.5826 21.7776 10.3269L14.1532 4.91771C13.7922 4.66124 13.2904 4.50567 12.7545 4.48404C12.2185 4.46242 11.6907 4.57644 11.2829 4.80188L6.80525 7.27948C6.4485 7.51049 6.23557 7.81794 6.20685 8.14351C6.1759 8.47634 5.58575 16.3605 15.0611 22.4766C23.3272 27.8085 33.6816 28.1986 36.5333 28.1986C36.9501 28.1986 37.206 28.1906 37.2741 28.1879C37.7786 28.1697 38.2549 28.0317 38.6112 27.8005L42.4492 24.9102C42.7989 24.6473 42.9759 24.3068 42.9428 23.9611C42.9097 23.6153 42.6689 23.2915 42.2717 23.0583L33.8859 18.1378Z" fill="white"></path>
</svg>
